<?xml version="1.0"?>
<svg width="144" height="100" xmlns="http://www.w3.org/2000/svg" xmlns:svg="http://www.w3.org/2000/svg">
 <g class="layer">
  <title>Layer 1</title>
  <path d="m1,30.15c0,5.27 1.26,10.15 3.79,14.66c2.63,4.39 6.2,7.9 10.7,10.53c4.5,2.64 9.55,3.96 15.15,3.96c5.71,0 10.76,-1.32 15.15,-3.96c4.5,-2.63 8.02,-6.14 10.54,-10.53c2.53,-4.51 3.79,-9.39 3.79,-14.66c0,-5.49 -1.26,-10.43 -3.79,-14.82c-2.52,-4.39 -6.04,-7.85 -10.54,-10.38c-4.39,-2.63 -9.44,-3.95 -15.15,-3.95c-5.6,0 -10.65,1.32 -15.15,3.95c-4.5,2.53 -8.07,5.99 -10.7,10.38c-2.53,4.39 -3.79,9.33 -3.79,14.82zm17.79,0c0,-2.31 0.49,-4.39 1.48,-6.26c0.99,-1.87 2.36,-3.35 4.11,-4.45c1.76,-1.2 3.85,-1.81 6.26,-1.81c2.42,0 4.45,0.61 6.1,1.81c1.75,1.1 3.12,2.58 4.11,4.45c0.99,1.87 1.48,3.95 1.48,6.26c0,2.19 -0.49,4.28 -1.48,6.26c-0.99,1.86 -2.36,3.34 -4.11,4.44c-1.65,1.1 -3.68,1.65 -6.1,1.65c-2.41,0 -4.5,-0.55 -6.26,-1.65c-1.75,-1.1 -3.12,-2.58 -4.11,-4.44c-0.99,-1.98 -1.48,-4.07 -1.48,-6.26zm57.14,62.25c0,5.38 1.26,10.26 3.79,14.65c2.63,4.4 6.2,7.91 10.7,10.54c4.5,2.64 9.55,3.96 15.15,3.96c5.71,0 10.76,-1.32 15.15,-3.96c4.5,-2.63 8.02,-6.14 10.54,-10.54c2.53,-4.39 3.79,-9.27 3.79,-14.65c0,-5.38 -1.26,-10.27 -3.79,-14.66c-2.52,-4.5 -6.04,-8.01 -10.54,-10.54c-4.39,-2.63 -9.44,-3.95 -15.15,-3.95c-5.6,0 -10.65,1.32 -15.15,3.95c-4.5,2.53 -8.07,6.04 -10.7,10.54c-2.53,4.39 -3.79,9.28 -3.79,14.66zm17.79,0c0,-2.31 0.49,-4.39 1.48,-6.26c0.99,-1.87 2.36,-3.35 4.11,-4.45c1.76,-1.09 3.85,-1.64 6.26,-1.64c2.42,0 4.45,0.55 6.1,1.64c1.75,1.1 3.12,2.58 4.11,4.45c0.99,1.87 1.49,3.95 1.49,6.26c0,2.19 -0.5,4.28 -1.49,6.26c-0.99,1.86 -2.36,3.34 -4.11,4.44c-1.65,1.1 -3.68,1.65 -6.1,1.65c-2.41,0 -4.5,-0.55 -6.26,-1.65c-1.75,-1.1 -3.12,-2.58 -4.11,-4.44c-0.99,-1.98 -1.48,-4.07 -1.48,-6.26zm5.59,-88.77l-83.98,115.28l21.57,0l83.99,-115.28l-21.58,0z" fill="#ffffff" id="svg_1"/>
 </g>
</svg>